<svg xmlns="http://www.w3.org/2000/svg" xmlns:xlink="http://www.w3.org/1999/xlink" width="200" height="200" viewBox="0 0 200 200">
  <g id="workspace"><path xmlns="http://www.w3.org/2000/svg" transform="matrix(0.1953 0 0 0.1953 0 0)" d="M967.111111 281.6V910.222222c0 62.577778-51.2 113.777778-113.777778 113.777778H170.666667c-62.577778 0-113.777778-51.2-113.777778-113.777778V113.777778c0-62.577778 51.2-113.777778 113.777778-113.777778h514.844444L967.111111 281.6z" fill="#3134db" p-id="4703" id="SvgjsPath1007" class=""/><path xmlns="http://www.w3.org/2000/svg" transform="matrix(0.1953 0 0 0.1953 0 0)" d="M685.511111 224.711111V0L967.111111 281.6H742.4c-31.288889 0-56.888889-25.6-56.888889-56.888889" fill="#6c7cff" p-id="4704" id="SvgjsPath1008" class=""/><g xmlns="http://www.w3.org/2000/svg" id="el-1782624432628-q2hh" class="" transform="matrix(0.6824609864212718,0,0,0.6824609864212718,31.753911771401047,43.75385970375987)" stroke-width="1" stroke="none" data-stroke-alignment="center" opacity="1"><g xmlns="http://www.w3.org/2000/svg" id="cvmqxck7apk4za_Layer_1" xml:space="preserve" transform="matrix(0.7539253909592148,0,0,0.7539253909592148,-597.1025674880617,-599.9963472166448)"><path d="M1006.5415831685359 874.4563443672619L930.4375831685359 830.5173443672619C926.9115831685359 828.4803443672619 922.3485831685358 828.4803443672619 918.8225831685359 830.5173443672619L842.7185831685358 874.4563443672619C839.1355831685358 876.5243443672618 836.9115831685358 880.3773443672619 836.9115831685358 884.5143443672619V972.3933443672619C836.9115831685358 976.5283443672619 839.1355831685358 980.3823443672619 842.7185831685358 982.4523443672618L918.8215831685358 1026.3903443672618C920.5855831685358 1027.4093443672618 922.5935831685358 1027.9483443672618 924.6305831685357 1027.9483443672618C926.6675831685358 1027.9483443672618 928.6755831685357 1027.4093443672618 930.4375831685358 1026.3913443672618L1006.5425831685358 982.4523443672618C1010.1235831685358 980.3843443672619 1012.3495831685358 976.5303443672618 1012.3495831685358 972.3943443672619V884.5153443672618C1012.349583168536 880.3773443672618 1010.123583168536 876.5233443672618 1006.5415831685359 874.4563443672619ZM924.630583168536 841.2833443672619L994.0065831685359 881.3383443672618L924.6315831685359 921.3943443672619L855.2535831685359 881.3383443672618L924.630583168536 841.2833443672619ZM849.140583168536 891.9283443672618L918.5175831685359 931.9833443672618V1012.0933443672618L849.140583168536 972.0383443672619V891.9283443672618ZM930.745583168536 1012.0923443672618V931.9843443672619L1000.120583168536 891.9293443672619V972.039344367262L930.745583168536 1012.0923443672618Z " id="SvgjsPath1102" fill="#ffffff"/></g></g></g>
</svg>