<svg xmlns="http://www.w3.org/2000/svg" xmlns:xlink="http://www.w3.org/1999/xlink" width="200" height="200" viewBox="0 0 200 200">
  <g id="workspace"><path xmlns="http://www.w3.org/2000/svg" transform="matrix(0.1953 0 0 0.1953 0 0)" d="M967.111111 281.6V910.222222c0 62.577778-51.2 113.777778-113.777778 113.777778H170.666667c-62.577778 0-113.777778-51.2-113.777778-113.777778V113.777778c0-62.577778 51.2-113.777778 113.777778-113.777778h514.844444L967.111111 281.6z" fill="#31A8FF" p-id="4703" id="SvgjsPath1007" class="selected"/><path xmlns="http://www.w3.org/2000/svg" transform="matrix(0.1953 0 0 0.1953 0 0)" d="M685.511111 224.711111V0L967.111111 281.6H742.4c-31.288889 0-56.888889-25.6-56.888889-56.888889" fill="#0689E9" p-id="4704" id="SvgjsPath1008"/><path xmlns="http://www.w3.org/2000/svg" transform="matrix(0.1953 0 0 0.1953 0 0)" d="M685.056 341.333333H338.915556a56.888889 56.888889 0 0 0-56.888889 56.888889v346.140445a56.888889 56.888889 0 0 0 56.888889 56.888889h346.140444a56.888889 56.888889 0 0 0 56.888889-56.888889V398.222222a56.888889 56.888889 0 0 0-56.888889-56.888889zM338.915556 369.777778h346.140444a28.444444 28.444444 0 0 1 28.444444 28.444444v346.140445a28.444444 28.444444 0 0 1-28.444444 28.444444H338.915556a28.444444 28.444444 0 0 1-28.444445-28.444444V398.222222a28.444444 28.444444 0 0 1 28.444445-28.444444z" fill="#FFFFFF" p-id="4706" id="SvgjsPath1010" class=""/><text xmlns="http://www.w3.org/2000/svg" x="100" y="119.8734130859375" font-family="system-ui, sans-serif" font-size="62" font-weight="bold" font-style="normal" fill="#ffffff" data-line-height="1.2" text-anchor="middle" dominant-baseline="middle" alignment-baseline="middle" xml:space="preserve" data-text-content="Ai" data-text-box-x="0" data-text-box-y="75.39997558593751" data-text-box-width="200" data-text-box-height="74.39999999999999" id="el-1782623027309-3osr" class=" selected" style="font-family: system-ui, sans-serif; font-size: 62px; font-weight: bold; font-style: normal;" data-font-alias="system-ui, sans-serif"><tspan x="100" y="119.8734130859375" id="SvgjsTspan1064">Ai</tspan></text></g>
</svg>