<svg t="1771772699967" class="icon" viewBox="0 0 1024 1024" version="1.1" xmlns="http://www.w3.org/2000/svg" p-id="1296" xmlns:xlink="http://www.w3.org/1999/xlink" width="200" height="200"><path d="M0 0h1024v1024H0z" fill="#D8D8D8" fill-opacity="0" p-id="1297"></path><path d="M938.666667 384V142.08C938.666667 112.085333 914.133333 85.333333 884.992 85.333333H139.008C109.866667 85.333333 85.333333 112.085333 85.333333 142.08V384h853.333334z" fill="#55C7F7" p-id="1298"></path><path d="M85.333333 640v241.92c0 29.994667 24.32 56.746667 53.248 56.746667h746.837334C914.346667 938.666667 938.666667 911.914667 938.666667 881.92V640H85.333333z" fill="#7ECF3B" p-id="1299"></path><path d="M425.045333 85.333333h169.813334v853.333334h-169.813334z" fill="#FDAF42" p-id="1300"></path><path d="M85.333333 384h853.333334v256H85.333333z" fill="#F95F5D" p-id="1301"></path><path d="M640 469.333333v85.333334H384v-85.333334h256m28.245333-42.666666H355.754667c-5.376 0-14.421333 3.712-14.421334 9.941333v150.784c0 3.712 5.376 9.941333 14.421334 9.941333h312.490666c5.376 0 14.421333-3.712 14.421334-9.941333v-150.784c-3.541333-7.424-9.045333-9.941333-14.421334-9.941333z" fill="#FFFFFF" p-id="1302"></path></svg>