<?xml version="1.0" standalone="no"?><!DOCTYPE svg PUBLIC "-//W3C//DTD SVG 1.1//EN" "http://www.w3.org/Graphics/SVG/1.1/DTD/svg11.dtd"><svg t="1770379850022" class="icon" viewBox="0 0 1024 1024" version="1.1" xmlns="http://www.w3.org/2000/svg" p-id="8734" id="mx_n_1770379850024" xmlns:xlink="http://www.w3.org/1999/xlink" width="200" height="200"><path d="M512 149.965c-199.947 0-380.965 81.039-511.994 212.077l96.02 96.019C202.474 351.582 349.542 285.723 512 285.723s309.526 65.859 415.975 172.338l96.02-96.019C892.965 231.004 711.947 149.965 512 149.965z" fill="#008236" p-id="8735"></path><path d="M160.004 522.05l95.979 95.989C321.512 552.51 412.021 512 512 512s190.487 40.51 256.017 106.039l95.979-95.989C773.917 431.951 649.458 376.242 512 376.242c-137.459 0-261.896 55.709-351.996 145.808z" fill="#008236" p-id="8736"></path><path d="M320.002 682.038L512 874.035l191.998-191.997c-49.13-49.14-117.02-79.529-191.998-79.529s-142.868 30.389-191.998 79.529z" fill="#008236" p-id="8737"></path></svg>